<svg width="1271" height="442" viewBox="0 0 1271 442" fill="none" xmlns="http://www.w3.org/2000/svg">
<path d="M38.0124 207.241C33.6457 207.241 29.4697 206.624 25.4844 205.39C21.4977 204.157 17.8431 202.308 14.5217 199.837C11.1991 197.372 8.30441 194.357 5.83774 190.797C3.36841 187.238 1.42441 183.086 0.000406901 178.341L18.0817 171.222C19.4097 176.348 21.7337 180.597 25.0577 183.964C28.3777 187.334 32.7444 189.018 38.1551 189.018C40.1484 189.018 42.0697 188.758 43.9217 188.234C45.7711 187.714 47.4311 186.954 48.9031 185.957C50.3737 184.961 51.5377 183.703 52.3924 182.185C53.2457 180.666 53.6737 178.909 53.6737 176.917C53.6737 175.018 53.3391 173.31 52.6764 171.792C52.0111 170.274 50.8964 168.852 49.3311 167.52C47.7644 166.192 45.7231 164.912 43.2084 163.677C40.6924 162.444 37.5857 161.162 33.8831 159.831L27.6204 157.554C24.8657 156.606 22.0897 155.325 19.2911 153.712C16.4897 152.098 13.9524 150.151 11.6751 147.873C9.39641 145.596 7.52174 142.914 6.05107 139.829C4.57907 136.746 3.84441 133.258 3.84441 129.366C3.84441 125.38 4.62707 121.656 6.19374 118.189C7.76041 114.726 9.98841 111.689 12.8844 109.078C15.7791 106.469 19.2417 104.429 23.2777 102.957C27.3111 101.486 31.7951 100.749 36.7311 100.749C41.8564 100.749 46.2924 101.44 50.0431 102.814C53.7911 104.19 56.9697 105.946 59.5817 108.081C62.1911 110.217 64.3017 112.566 65.9164 115.129C67.5297 117.692 68.7151 120.112 69.4764 122.389L52.5337 129.508C51.5844 126.661 49.8511 124.098 47.3377 121.821C44.8217 119.542 41.3804 118.404 37.0164 118.404C32.8391 118.404 29.3751 119.378 26.6231 121.322C23.8697 123.269 22.4951 125.806 22.4951 128.938C22.4951 131.977 23.8217 134.562 26.4804 136.698C29.1364 138.833 33.3617 140.898 39.1511 142.89L45.5577 145.026C49.6377 146.45 53.3644 148.088 56.7337 149.937C60.1017 151.789 62.9977 153.995 65.4191 156.558C67.8391 159.121 69.6897 162.039 70.9711 165.314C72.2524 168.587 72.8937 172.36 72.8937 176.632C72.8937 181.949 71.8244 186.526 69.6897 190.37C67.5537 194.214 64.8244 197.372 61.5031 199.837C58.1791 202.308 54.4311 204.157 50.2564 205.39C46.0791 206.624 41.9991 207.241 38.0124 207.241Z" fill="black"/>
<path d="M105.352 135.202H126.566L143.934 179.621H144.931L162.442 135.202H183.514L153.472 204.962H135.107L105.352 135.202Z" fill="black"/>
<path d="M262.099 176.632C259.915 175.589 257.66 174.758 255.336 174.139C253.011 173.523 250.471 173.214 247.72 173.214C243.258 173.214 239.818 174.189 237.398 176.133C234.978 178.079 233.767 180.476 233.767 183.324C233.767 186.17 234.93 188.449 237.256 190.157C239.58 191.865 242.262 192.719 245.299 192.719C247.767 192.719 250.044 192.27 252.134 191.366C254.22 190.466 255.999 189.279 257.472 187.807C258.943 186.338 260.082 184.63 260.888 182.682C261.694 180.74 262.099 178.721 262.099 176.632ZM262.099 197.559H260.96C258.775 200.218 256.142 202.495 253.059 204.394C249.974 206.29 246.011 207.241 241.171 207.241C237.563 207.241 234.17 206.646 230.991 205.462C227.811 204.275 225.035 202.638 222.663 200.549C220.29 198.463 218.439 195.946 217.111 193.005C215.78 190.064 215.118 186.836 215.118 183.324C215.118 179.717 215.83 176.468 217.254 173.57C218.678 170.677 220.67 168.186 223.232 166.097C225.795 164.01 228.808 162.419 232.272 161.327C235.736 160.237 239.51 159.69 243.591 159.69C248.147 159.69 251.896 160.046 254.838 160.758C257.779 161.469 260.199 162.206 262.099 162.965V160.829C262.099 157.127 260.627 154.066 257.686 151.646C254.742 149.226 251.087 148.017 246.723 148.017C240.267 148.017 234.811 150.721 230.351 156.132L216.826 146.877C224.23 137.575 234.338 132.925 247.151 132.925C257.97 132.925 266.227 135.465 271.923 140.542C277.618 145.621 280.464 153.141 280.464 163.107V204.964H262.099V197.559Z" fill="black"/>
<path d="M341.253 144.314H342.393C344.574 140.804 347.518 138.028 351.22 135.985C354.92 133.946 359.143 132.925 363.891 132.925C368.255 132.925 372.098 133.637 375.421 135.061C378.744 136.484 381.473 138.502 383.608 141.112C385.744 143.722 387.356 146.854 388.448 150.508C389.538 154.162 390.086 158.22 390.086 162.678V204.962H371.436V164.957C371.436 159.928 370.319 156.202 368.089 153.782C365.859 151.361 362.609 150.15 358.337 150.15C355.774 150.15 353.519 150.698 351.576 151.788C349.628 152.881 347.966 154.35 346.592 156.202C345.216 158.053 344.172 160.237 343.46 162.752C342.749 165.268 342.393 167.948 342.393 170.794V204.962H323.742V135.202H341.253V144.314Z" fill="black"/>
<path d="M470.095 190.014C472.563 190.014 474.911 189.541 477.143 188.59C479.372 187.644 481.343 186.313 483.051 184.604C484.759 182.896 486.134 180.809 487.179 178.341C488.223 175.873 488.746 173.122 488.746 170.082C488.746 167.046 488.223 164.294 487.179 161.825C486.134 159.358 484.759 157.269 483.051 155.561C481.343 153.853 479.372 152.525 477.143 151.574C474.911 150.628 472.563 150.152 470.095 150.152C467.626 150.152 465.278 150.602 463.048 151.504C460.818 152.406 458.848 153.71 457.14 155.42C455.431 157.128 454.055 159.216 453.011 161.682C451.966 164.153 451.444 166.95 451.444 170.082C451.444 173.214 451.966 176.016 453.011 178.484C454.055 180.952 455.431 183.038 457.14 184.746C458.848 186.456 460.818 187.761 463.048 188.662C465.278 189.566 467.626 190.014 470.095 190.014ZM433.934 103.028H452.584V133.637L451.444 143.602H452.584C454.292 140.661 456.948 138.146 460.556 136.057C464.163 133.97 468.623 132.925 473.939 132.925C478.4 132.925 482.647 133.85 486.68 135.701C490.714 137.552 494.274 140.114 497.359 143.389C500.442 146.664 502.887 150.578 504.691 155.134C506.492 159.69 507.396 164.673 507.396 170.082C507.396 175.493 506.492 180.476 504.691 185.032C502.887 189.588 500.442 193.504 497.359 196.777C494.274 200.052 490.714 202.614 486.68 204.465C482.647 206.316 478.4 207.241 473.939 207.241C468.623 207.241 464.163 206.196 460.556 204.109C456.948 202.022 454.292 199.506 452.584 196.564H451.444V204.962H433.934V103.028Z" fill="black"/>
<path d="M596.944 161.114C596.848 159.882 596.445 158.505 595.733 156.985C595.021 155.469 593.976 154.045 592.601 152.714C591.224 151.386 589.516 150.294 587.476 149.439C585.435 148.586 582.992 148.158 580.144 148.158C576.159 148.158 572.645 149.297 569.609 151.575C566.571 153.853 564.435 157.034 563.203 161.114H596.944ZM613.885 188.165C610.657 193.859 606.315 198.463 600.859 201.974C595.4 205.483 588.733 207.241 580.856 207.241C575.54 207.241 570.628 206.315 566.121 204.465C561.612 202.614 557.697 200.029 554.376 196.705C551.053 193.385 548.468 189.47 546.616 184.961C544.767 180.454 543.84 175.493 543.84 170.083C543.84 165.054 544.741 160.283 546.547 155.775C548.347 151.269 550.863 147.329 554.091 143.958C557.316 140.59 561.139 137.909 565.552 135.915C569.965 133.921 574.828 132.925 580.144 132.925C585.744 132.925 590.727 133.85 595.093 135.701C599.457 137.551 603.112 140.114 606.055 143.39C608.996 146.663 611.228 150.531 612.747 154.991C614.264 159.454 615.025 164.295 615.025 169.514V171.223C614.929 171.791 614.883 172.314 614.883 172.789C614.787 173.265 614.74 173.785 614.74 174.354H562.205C562.584 177.201 563.367 179.646 564.555 181.686C565.741 183.727 567.212 185.437 568.969 186.811C570.723 188.187 572.645 189.185 574.735 189.801C576.821 190.419 578.956 190.726 581.141 190.726C585.413 190.726 588.947 189.754 591.747 187.809C594.547 185.863 596.752 183.419 598.368 180.475L613.885 188.165Z" fill="black"/>
<path d="M655.457 135.202H672.969V144.884H674.106C674.962 143.176 676.1 141.609 677.525 140.185C678.948 138.761 680.537 137.524 682.294 136.464C684.048 135.408 685.946 134.553 687.988 133.901C690.029 133.252 692.045 132.925 694.04 132.925C696.505 132.925 698.617 133.189 700.374 133.717C702.13 134.244 703.625 134.929 704.86 135.772L699.876 152.429C698.737 151.86 697.478 151.41 696.102 151.077C694.726 150.745 693.042 150.578 691.049 150.578C688.485 150.578 686.16 151.081 684.074 152.082C681.985 153.084 680.205 154.492 678.734 156.304C677.262 158.117 676.124 160.24 675.318 162.673C674.51 165.106 674.106 167.754 674.106 170.614V204.962H655.457V135.202Z" fill="black"/>
<path d="M771.203 188.164C773.482 188.164 775.734 187.745 777.964 186.907C780.195 186.068 782.166 184.833 783.874 183.203C785.583 181.573 786.956 179.568 788.003 177.192C789.046 174.816 789.568 172.089 789.568 169.013C789.568 165.939 789.046 163.192 788.003 160.767C786.956 158.344 785.583 156.317 783.874 154.688C782.166 153.056 780.195 151.823 777.964 150.984C775.734 150.144 773.482 149.724 771.203 149.724C768.924 149.724 766.694 150.144 764.511 150.984C762.327 151.823 760.383 153.079 758.675 154.756C756.966 156.433 755.59 158.463 754.546 160.837C753.5 163.215 752.98 165.939 752.98 169.013C752.98 172.089 753.5 174.816 754.546 177.192C755.59 179.568 756.966 181.573 758.675 183.203C760.383 184.833 762.327 186.068 764.511 186.907C766.694 187.745 768.924 188.164 771.203 188.164ZM770.491 237.992C765.555 237.992 761.167 237.352 757.322 236.071C753.479 234.789 750.132 233.128 747.286 231.087C744.438 229.045 742.064 226.792 740.167 224.325C738.267 221.856 736.894 219.388 736.038 216.921L753.835 209.803C755.162 213.505 757.344 216.375 760.383 218.417C763.419 220.456 766.79 221.477 770.491 221.477C776.375 221.477 781.026 219.567 784.443 215.749C787.86 211.931 789.568 206.673 789.568 199.98V195.139H788.43C786.246 198.179 783.376 200.575 779.816 202.329C776.258 204.087 772.058 204.963 767.218 204.963C763.039 204.963 758.982 204.117 755.044 202.427C751.106 200.737 747.618 198.316 744.58 195.165C741.542 192.02 739.074 188.235 737.176 183.817C735.279 179.4 734.33 174.465 734.33 169.015C734.33 163.565 735.279 158.607 737.176 154.141C739.074 149.677 741.542 145.872 744.58 142.721C747.618 139.575 751.106 137.153 755.044 135.463C758.982 133.772 763.039 132.924 767.218 132.924C772.058 132.924 776.258 133.803 779.816 135.559C783.376 137.316 786.246 139.712 788.43 142.748H789.568V135.203H807.364V199.98C807.364 205.864 806.462 211.156 804.659 215.855C802.855 220.552 800.34 224.537 797.115 227.812C793.886 231.087 790.018 233.601 785.51 235.359C781.003 237.115 775.995 237.992 770.491 237.992Z" fill="black"/>
<path d="M878.69 207.241C874.134 207.241 870.077 206.671 866.517 205.531C862.958 204.394 859.874 202.898 857.265 201.048C854.653 199.198 852.445 197.061 850.645 194.641C848.839 192.221 847.462 189.778 846.515 187.31L863.171 180.191C864.785 183.799 866.943 186.479 869.65 188.234C872.354 189.991 875.367 190.869 878.69 190.869C882.107 190.869 884.813 190.252 886.805 189.018C888.798 187.786 889.794 186.313 889.794 184.604C889.794 182.708 888.962 181.165 887.303 179.978C885.642 178.791 882.771 177.725 878.69 176.774L868.866 174.638C866.682 174.165 864.429 173.406 862.105 172.359C859.777 171.318 857.666 169.99 855.769 168.374C853.869 166.761 852.303 164.815 851.07 162.538C849.835 160.259 849.219 157.604 849.219 154.565C849.219 151.148 849.954 148.112 851.426 145.453C852.897 142.797 854.915 140.542 857.477 138.69C860.041 136.84 863.051 135.416 866.517 134.42C869.981 133.424 873.707 132.925 877.693 132.925C884.335 132.925 890.269 134.23 895.49 136.84C900.709 139.452 904.551 143.602 907.021 149.297L890.934 155.846C889.603 153.094 887.659 151.102 885.097 149.868C882.534 148.634 879.971 148.017 877.409 148.017C874.751 148.017 872.426 148.563 870.433 149.653C868.441 150.745 867.442 152.145 867.442 153.853C867.442 155.467 868.273 156.749 869.934 157.697C871.594 158.648 873.849 159.501 876.697 160.26L887.374 162.822C894.494 164.53 899.782 167.26 903.249 171.009C906.713 174.758 908.443 179.194 908.443 184.32C908.443 187.358 907.733 190.252 906.31 193.005C904.885 195.758 902.869 198.201 900.259 200.335C897.647 202.471 894.515 204.157 890.862 205.39C887.209 206.624 883.15 207.241 878.69 207.241Z" fill="black"/>
<path d="M23.3053 318.361C19.1813 318.361 15.76 317.09 13.0453 314.546C10.3293 312.002 8.936 308.461 8.86933 303.925V275.669H0V267.007H8.86933V251.539H18.356V267.007H30.7307V275.669H18.356V300.831C18.356 304.199 19.008 306.486 20.3147 307.689C21.62 308.891 23.0987 309.494 24.7493 309.494C25.5053 309.494 26.2453 309.407 26.9667 309.234C27.688 309.063 28.3587 308.841 28.9773 308.565L31.968 317.021C29.4933 317.914 26.6053 318.361 23.3053 318.361Z" fill="black"/>
<path d="M67.4414 286.187H96.4174C96.1427 282.681 94.7174 279.777 92.1387 277.474C89.5601 275.171 86.1067 274.019 81.7747 274.019C78.2001 274.019 75.1241 275.119 72.5454 277.319C69.9681 279.521 68.2667 282.475 67.4414 286.187ZM82.6001 319.186C75.1747 319.186 69.056 316.643 64.244 311.554C59.432 306.469 57.0254 300.041 57.0254 292.27C57.0254 284.573 59.3614 278.161 64.0387 273.041C68.7121 267.919 74.6934 265.357 81.9814 265.357C89.4734 265.357 95.4387 267.779 99.872 272.627C104.307 277.474 106.524 284.265 106.524 292.993L106.42 294.025H66.7187C66.8561 298.975 68.5054 302.962 71.6694 305.987C74.8307 309.013 78.6121 310.523 83.0121 310.523C89.0614 310.523 93.8041 307.499 97.2427 301.449L105.699 305.574C103.431 309.837 100.285 313.17 96.2627 315.578C92.2414 317.983 87.6867 319.186 82.6001 319.186Z" fill="black"/>
<path d="M180.254 317.536H168.809L153.031 293.715L145.297 301.346V317.536H135.81V243.702H145.297V289.178L167.158 267.008H179.326V267.419L159.63 287.012L180.254 317.123V317.536Z" fill="black"/>
<path d="M206.24 267.008H215.314V274.02H215.726C217.17 271.545 219.388 269.481 222.378 267.832C225.369 266.182 228.477 265.357 231.71 265.357C237.898 265.357 242.656 267.128 245.992 270.668C249.326 274.209 250.993 279.245 250.993 285.774V317.536H241.508V286.393C241.3 278.145 237.14 274.02 229.03 274.02C225.248 274.02 222.085 275.549 219.542 278.608C216.997 281.668 215.726 285.328 215.726 289.59V317.536H206.24V267.008Z" fill="black"/>
<path d="M293.066 317.537H283.579V267.009H293.066V317.537ZM295.026 249.58C295.026 251.436 294.371 253.018 293.066 254.324C291.759 255.63 290.178 256.284 288.322 256.284C286.466 256.284 284.885 255.63 283.579 254.324C282.271 253.018 281.619 251.436 281.619 249.58C281.619 247.724 282.271 246.142 283.579 244.837C284.885 243.532 286.466 242.878 288.322 242.878C290.178 242.878 291.759 243.532 293.066 244.837C294.371 246.142 295.026 247.724 295.026 249.58Z" fill="black"/>
<path d="M370.508 317.536H359.062L343.284 293.715L335.551 301.346V317.536H326.064V243.702H335.551V289.178L357.411 267.008H369.58V267.419L349.884 287.012L370.508 317.123V317.536Z" fill="black"/>
<path d="M416.499 318.361C412.375 318.361 408.953 317.09 406.237 314.546C403.523 312.002 402.129 308.461 402.061 303.925V275.669H393.193V267.007H402.061V251.539H411.549V267.007H423.923V275.669H411.549V300.831C411.549 304.199 412.201 306.486 413.508 307.689C414.812 308.891 416.292 309.494 417.943 309.494C418.697 309.494 419.437 309.407 420.16 309.234C420.881 309.063 421.552 308.841 422.171 308.565L425.161 317.021C422.687 317.914 419.799 318.361 416.499 318.361Z" fill="black"/>
<path d="M465.892 249.579C465.892 251.437 465.239 253.018 463.932 254.323C462.625 255.63 461.045 256.283 459.189 256.283C457.333 256.283 455.751 255.63 454.447 254.323C453.139 253.018 452.485 251.437 452.485 249.579C452.485 247.723 453.139 246.142 454.447 244.837C455.751 243.531 457.333 242.878 459.189 242.878C461.045 242.878 462.625 243.531 463.932 244.837C465.239 246.142 465.892 247.723 465.892 249.579ZM448.775 340.841C446.712 340.841 444.856 340.497 443.207 339.81L445.68 331.561C446.781 331.973 447.709 332.179 448.465 332.179C452.313 332.179 454.308 329.807 454.447 325.063V267.007H463.932V323.621C463.932 335.101 458.88 340.841 448.775 340.841Z" fill="black"/>
<path d="M531.579 249.684C531.579 251.265 531.013 252.64 529.878 253.808C528.743 254.978 527.351 255.561 525.701 255.561C524.189 255.561 522.83 254.96 521.629 253.756C520.423 252.553 519.823 251.197 519.823 249.684C519.823 248.033 520.407 246.641 521.577 245.506C522.746 244.373 524.119 243.805 525.701 243.805C527.419 243.805 528.829 244.357 529.93 245.456C531.027 246.556 531.579 247.965 531.579 249.684ZM503.325 302.068C503.325 304.544 504.371 306.605 506.47 308.256C508.566 309.905 511.023 310.73 513.843 310.73C517.829 310.73 521.386 309.254 524.516 306.296C527.642 303.341 529.207 299.869 529.207 295.88C526.251 293.545 522.126 292.376 516.833 292.376C512.982 292.376 509.77 293.304 507.191 295.158C504.613 297.016 503.325 299.32 503.325 302.068ZM514.255 249.684C514.255 251.265 513.687 252.64 512.554 253.808C511.419 254.978 510.027 255.561 508.378 255.561C506.863 255.561 505.506 254.96 504.303 253.756C503.101 252.553 502.498 251.197 502.498 249.684C502.498 248.033 503.082 246.641 504.253 245.506C505.421 244.373 506.795 243.805 508.378 243.805C510.095 243.805 511.505 244.357 512.606 245.456C513.703 246.556 514.255 247.965 514.255 249.684ZM515.595 265.357C522.607 265.357 528.141 267.232 532.198 270.978C536.254 274.725 538.282 279.864 538.282 286.393V317.537H529.207V310.524H528.795C524.877 316.3 519.651 319.186 513.121 319.186C507.551 319.186 502.894 317.537 499.147 314.237C495.399 310.936 493.527 306.812 493.527 301.862C493.527 296.638 495.503 292.478 499.458 289.384C503.41 286.292 508.687 284.744 515.286 284.744C520.922 284.744 525.563 285.774 529.207 287.837V285.672C529.207 282.373 527.901 279.572 525.289 277.268C522.675 274.966 519.617 273.814 516.111 273.814C510.817 273.814 506.625 276.048 503.531 280.516L495.178 275.257C499.783 268.657 506.589 265.357 515.595 265.357Z" fill="black"/>
<path d="M569.631 267.008H578.704V274.02H579.117C580.56 271.545 582.777 269.481 585.769 267.832C588.76 266.182 591.87 265.357 595.102 265.357C601.29 265.357 606.048 267.128 609.384 270.668C612.717 274.209 614.384 279.245 614.384 285.774V317.536H604.897V286.393C604.691 278.145 600.531 274.02 592.42 274.02C588.639 274.02 585.475 275.549 582.933 278.608C580.388 281.668 579.117 285.328 579.117 289.59V317.536H569.631V267.008Z" fill="black"/>
<path d="M684.301 303.512C684.301 307.913 682.375 311.625 678.525 314.65C674.674 317.673 669.829 319.186 663.986 319.186C658.897 319.186 654.43 317.862 650.579 315.216C646.729 312.57 643.981 309.081 642.33 304.75L650.786 301.141C652.023 304.166 653.829 306.52 656.201 308.205C658.571 309.889 661.165 310.73 663.986 310.73C667.01 310.73 669.537 310.078 671.565 308.77C673.593 307.466 674.606 305.92 674.606 304.132C674.606 300.9 672.133 298.529 667.182 297.016L658.521 294.849C648.689 292.374 643.774 287.632 643.774 280.62C643.774 276.014 645.646 272.317 649.394 269.534C653.141 266.75 657.937 265.357 663.778 265.357C668.247 265.357 672.286 266.425 675.895 268.554C679.505 270.686 682.031 273.54 683.475 277.113L675.019 280.62C674.055 278.488 672.494 276.821 670.329 275.618C668.162 274.416 665.739 273.814 663.057 273.814C660.583 273.814 658.366 274.432 656.406 275.669C654.446 276.908 653.467 278.42 653.467 280.206C653.467 283.094 656.182 285.156 661.613 286.393L669.245 288.353C679.281 290.828 684.301 295.88 684.301 303.512Z" fill="black"/>
<path d="M732.664 318.361C728.539 318.361 725.117 317.09 722.404 314.546C719.687 312.002 718.295 308.461 718.227 303.925V275.669H709.359V267.007H718.227V251.539H727.713V267.007H740.088V275.669H727.713V300.831C727.713 304.199 728.367 306.486 729.673 307.689C730.977 308.891 732.457 309.494 734.107 309.494C734.863 309.494 735.603 309.407 736.324 309.234C737.045 309.063 737.716 308.841 738.335 308.565L741.325 317.021C738.852 317.914 735.964 318.361 732.664 318.361Z" fill="black"/>
<path d="M1256.82 193.198C1256.82 193.198 1222.44 194.917 1180.33 86.6406C1138.23 -21.6354 1057.45 64.2979 1111.59 117.577C1165.73 170.855 1359.93 346.161 1221.58 420.922C1083.23 495.685 705.12 343.582 705.12 343.582C705.12 343.582 1152.84 448.422 1156.27 334.989C1159.71 221.557 1049.72 203.51 1055.73 80.6246C1059.26 8.42992 1095.72 -2.66475 1125.2 0.467246C1143.18 2.37791 1160.08 9.93393 1173.91 21.5899C1182.3 28.6646 1194.83 38.2246 1208.69 45.3926C1233.61 58.2819 1261.11 94.3739 1242.21 131.326C1223.3 168.278 1256.82 193.198 1256.82 193.198Z" fill="black"/>
<path d="M758.398 359.051L858.512 258.937L908.353 308.779L876.986 270.539L961.204 186.324L1034.25 259.367L992.568 301.044L1065.18 247.336L1175.18 357.332L1134.79 410.611L1050.57 421.781L938 404.595L838.317 381.393L778.164 365.065L758.398 359.051Z" fill="black"/>
</svg>
